<svg width="193" height="48" viewBox="0 0 193 48" fill="none" xmlns="http://www.w3.org/2000/svg">
<rect width="193" height="48" rx="8" fill="white"/>
<path d="M13.3333 24.944C11.3577 25.3804 10 26.2865 10 27.3335C10 28.8062 12.6863 30.0002 16 30.0002C19.3137 30.0002 22 28.8062 22 27.3335C22 26.2865 20.6423 25.3804 18.6667 24.944M16 27.3333V20.963M16 20.963V18.1957C16 18.0876 16.0901 18 16.2013 18H17.2082C17.8981 18 18.5598 18.2665 19.0476 18.7407C19.5355 19.215 20.1971 19.4815 20.887 19.4815H21.1991C21.2733 19.4815 21.3333 19.5399 21.3333 19.6119V22.2247C21.3333 22.3461 21.2321 22.4444 21.1073 22.4444H20.1251C19.4352 22.4444 18.7736 22.178 18.2857 21.7037C17.7979 21.2294 17.1362 20.963 16.4463 20.963H16Z" stroke="#616161" stroke-width="2" stroke-linecap="round"/>
<path d="M13.3333 24.944C11.3577 25.3804 10 26.2865 10 27.3335C10 28.8062 12.6863 30.0002 16 30.0002C19.3137 30.0002 22 28.8062 22 27.3335C22 26.2865 20.6423 25.3804 18.6667 24.944M16 27.3333V20.963M16 20.963V18.1957C16 18.0876 16.0901 18 16.2013 18H17.2082C17.8981 18 18.5598 18.2665 19.0476 18.7407C19.5355 19.215 20.1971 19.4815 20.887 19.4815H21.1991C21.2733 19.4815 21.3333 19.5399 21.3333 19.6119V22.2247C21.3333 22.3461 21.2321 22.4444 21.1073 22.4444H20.1251C19.4352 22.4444 18.7736 22.178 18.2857 21.7037C17.7979 21.2294 17.1362 20.963 16.4463 20.963H16Z" stroke="black" stroke-opacity="0.2" stroke-width="2" stroke-linecap="round"/>
<path d="M13.3333 24.944C11.3577 25.3804 10 26.2865 10 27.3335C10 28.8062 12.6863 30.0002 16 30.0002C19.3137 30.0002 22 28.8062 22 27.3335C22 26.2865 20.6423 25.3804 18.6667 24.944M16 27.3333V20.963M16 20.963V18.1957C16 18.0876 16.0901 18 16.2013 18H17.2082C17.8981 18 18.5598 18.2665 19.0476 18.7407C19.5355 19.215 20.1971 19.4815 20.887 19.4815H21.1991C21.2733 19.4815 21.3333 19.5399 21.3333 19.6119V22.2247C21.3333 22.3461 21.2321 22.4444 21.1073 22.4444H20.1251C19.4352 22.4444 18.7736 22.178 18.2857 21.7037C17.7979 21.2294 17.1362 20.963 16.4463 20.963H16Z" stroke="black" stroke-opacity="0.2" stroke-width="2" stroke-linecap="round"/>
<path d="M13.3333 24.944C11.3577 25.3804 10 26.2865 10 27.3335C10 28.8062 12.6863 30.0002 16 30.0002C19.3137 30.0002 22 28.8062 22 27.3335C22 26.2865 20.6423 25.3804 18.6667 24.944M16 27.3333V20.963M16 20.963V18.1957C16 18.0876 16.0901 18 16.2013 18H17.2082C17.8981 18 18.5598 18.2665 19.0476 18.7407C19.5355 19.215 20.1971 19.4815 20.887 19.4815H21.1991C21.2733 19.4815 21.3333 19.5399 21.3333 19.6119V22.2247C21.3333 22.3461 21.2321 22.4444 21.1073 22.4444H20.1251C19.4352 22.4444 18.7736 22.178 18.2857 21.7037C17.7979 21.2294 17.1362 20.963 16.4463 20.963H16Z" stroke="black" stroke-opacity="0.2" stroke-width="2" stroke-linecap="round"/>
<path d="M13.3333 24.944C11.3577 25.3804 10 26.2865 10 27.3335C10 28.8062 12.6863 30.0002 16 30.0002C19.3137 30.0002 22 28.8062 22 27.3335C22 26.2865 20.6423 25.3804 18.6667 24.944M16 27.3333V20.963M16 20.963V18.1957C16 18.0876 16.0901 18 16.2013 18H17.2082C17.8981 18 18.5598 18.2665 19.0476 18.7407C19.5355 19.215 20.1971 19.4815 20.887 19.4815H21.1991C21.2733 19.4815 21.3333 19.5399 21.3333 19.6119V22.2247C21.3333 22.3461 21.2321 22.4444 21.1073 22.4444H20.1251C19.4352 22.4444 18.7736 22.178 18.2857 21.7037C17.7979 21.2294 17.1362 20.963 16.4463 20.963H16Z" stroke="black" stroke-opacity="0.2" stroke-width="2" stroke-linecap="round"/>
<path d="M40.688 22.112C40.688 23.04 40.368 23.8133 39.728 24.432C39.0987 25.04 38.1333 25.344 36.832 25.344H34.688V30H33.232V18.848H36.832C38.0907 18.848 39.0453 19.152 39.696 19.76C40.3573 20.368 40.688 21.152 40.688 22.112ZM36.832 24.144C37.6427 24.144 38.24 23.968 38.624 23.616C39.008 23.264 39.2 22.7627 39.2 22.112C39.2 20.736 38.4107 20.048 36.832 20.048H34.688V24.144H36.832ZM43.9536 22.656C44.2096 22.1547 44.5723 21.7653 45.0416 21.488C45.5216 21.2107 46.103 21.072 46.7856 21.072V22.576H46.4016C44.7696 22.576 43.9536 23.4613 43.9536 25.232V30H42.4976V21.232H43.9536V22.656ZM52.2904 30.144C51.469 30.144 50.7224 29.9573 50.0504 29.584C49.389 29.2107 48.8664 28.6827 48.4824 28C48.109 27.3067 47.9224 26.5067 47.9224 25.6C47.9224 24.704 48.1144 23.9147 48.4984 23.232C48.893 22.5387 49.4264 22.0107 50.0984 21.648C50.7704 21.2747 51.5224 21.088 52.3544 21.088C53.1864 21.088 53.9384 21.2747 54.6104 21.648C55.2824 22.0107 55.8104 22.5333 56.1944 23.216C56.589 23.8987 56.7864 24.6933 56.7864 25.6C56.7864 26.5067 56.5837 27.3067 56.1784 28C55.7837 28.6827 55.245 29.2107 54.5624 29.584C53.8797 29.9573 53.1224 30.144 52.2904 30.144ZM52.2904 28.864C52.813 28.864 53.3037 28.7413 53.7624 28.496C54.221 28.2507 54.589 27.8827 54.8664 27.392C55.1544 26.9013 55.2984 26.304 55.2984 25.6C55.2984 24.896 55.1597 24.2987 54.8824 23.808C54.605 23.3173 54.2424 22.9547 53.7944 22.72C53.3464 22.4747 52.861 22.352 52.3384 22.352C51.805 22.352 51.3144 22.4747 50.8664 22.72C50.429 22.9547 50.077 23.3173 49.8104 23.808C49.5437 24.2987 49.4104 24.896 49.4104 25.6C49.4104 26.3147 49.5384 26.9173 49.7944 27.408C50.061 27.8987 50.413 28.2667 50.8504 28.512C51.2877 28.7467 51.7677 28.864 52.2904 28.864ZM60.1568 22.848C60.4448 22.3467 60.8714 21.9307 61.4368 21.6C62.0128 21.2587 62.6794 21.088 63.4368 21.088C64.2154 21.088 64.9194 21.2747 65.5487 21.648C66.1887 22.0213 66.6901 22.5493 67.0528 23.232C67.4154 23.904 67.5968 24.688 67.5968 25.584C67.5968 26.4693 67.4154 27.2587 67.0528 27.952C66.6901 28.6453 66.1887 29.184 65.5487 29.568C64.9194 29.952 64.2154 30.144 63.4368 30.144C62.6901 30.144 62.0288 29.9787 61.4528 29.648C60.8874 29.3067 60.4554 28.8853 60.1568 28.384V34.16H58.7008V21.232H60.1568V22.848ZM66.1088 25.584C66.1088 24.9227 65.9754 24.3467 65.7088 23.856C65.4421 23.3653 65.0794 22.992 64.6208 22.736C64.1728 22.48 63.6768 22.352 63.1328 22.352C62.5994 22.352 62.1034 22.4853 61.6448 22.752C61.1968 23.008 60.8341 23.3867 60.5568 23.888C60.2901 24.3787 60.1568 24.9493 60.1568 25.6C60.1568 26.2613 60.2901 26.8427 60.5568 27.344C60.8341 27.8347 61.1968 28.2133 61.6448 28.48C62.1034 28.736 62.5994 28.864 63.1328 28.864C63.6768 28.864 64.1728 28.736 64.6208 28.48C65.0794 28.2133 65.4421 27.8347 65.7088 27.344C65.9754 26.8427 66.1088 26.256 66.1088 25.584ZM77.5133 25.28C77.5133 25.5573 77.4973 25.8507 77.4653 26.16H70.4573C70.5106 27.024 70.8039 27.7013 71.3373 28.192C71.8813 28.672 72.5373 28.912 73.3053 28.912C73.9346 28.912 74.4573 28.768 74.8733 28.48C75.2999 28.1813 75.5986 27.7867 75.7693 27.296H77.3373C77.1026 28.1387 76.6333 28.8267 75.9293 29.36C75.2253 29.8827 74.3506 30.144 73.3053 30.144C72.4733 30.144 71.7266 29.9573 71.0653 29.584C70.4146 29.2107 69.9026 28.6827 69.5293 28C69.1559 27.3067 68.9693 26.5067 68.9693 25.6C68.9693 24.6933 69.1506 23.8987 69.5133 23.216C69.8759 22.5333 70.3826 22.0107 71.0333 21.648C71.6946 21.2747 72.4519 21.088 73.3053 21.088C74.1373 21.088 74.8733 21.2693 75.5133 21.632C76.1533 21.9947 76.6439 22.496 76.9853 23.136C77.3373 23.7653 77.5133 24.48 77.5133 25.28ZM76.0093 24.976C76.0093 24.4213 75.8866 23.9467 75.6413 23.552C75.3959 23.1467 75.0599 22.8427 74.6333 22.64C74.2173 22.4267 73.7533 22.32 73.2413 22.32C72.5053 22.32 71.8759 22.5547 71.3533 23.024C70.8413 23.4933 70.5479 24.144 70.4733 24.976H76.0093ZM80.8911 22.656C81.1471 22.1547 81.5098 21.7653 81.9791 21.488C82.4591 21.2107 83.0405 21.072 83.7231 21.072V22.576H83.3391C81.7071 22.576 80.8911 23.4613 80.8911 25.232V30H79.4351V21.232H80.8911V22.656ZM87.1799 22.432V27.6C87.1799 28.0267 87.2705 28.3307 87.4519 28.512C87.6332 28.6827 87.9479 28.768 88.3959 28.768H89.4679V30H88.1559C87.3452 30 86.7372 29.8133 86.3319 29.44C85.9265 29.0667 85.7239 28.4533 85.7239 27.6V22.432H84.5879V21.232H85.7239V19.024H87.1799V21.232H89.4679V22.432H87.1799ZM98.784 21.232L93.504 34.128H92L93.728 29.904L90.192 21.232H91.808L94.56 28.336L97.28 21.232H98.784ZM111.377 18.848V20.032H108.337V30H106.881V20.032H103.825V18.848H111.377ZM120.722 21.232L115.442 34.128H113.938L115.666 29.904L112.13 21.232H113.746L116.498 28.336L119.218 21.232H120.722ZM123.641 22.848C123.929 22.3467 124.356 21.9307 124.921 21.6C125.497 21.2587 126.164 21.088 126.921 21.088C127.7 21.088 128.404 21.2747 129.033 21.648C129.673 22.0213 130.174 22.5493 130.537 23.232C130.9 23.904 131.081 24.688 131.081 25.584C131.081 26.4693 130.9 27.2587 130.537 27.952C130.174 28.6453 129.673 29.184 129.033 29.568C128.404 29.952 127.7 30.144 126.921 30.144C126.174 30.144 125.513 29.9787 124.937 29.648C124.372 29.3067 123.94 28.8853 123.641 28.384V34.16H122.185V21.232H123.641V22.848ZM129.593 25.584C129.593 24.9227 129.46 24.3467 129.193 23.856C128.926 23.3653 128.564 22.992 128.105 22.736C127.657 22.48 127.161 22.352 126.617 22.352C126.084 22.352 125.588 22.4853 125.129 22.752C124.681 23.008 124.318 23.3867 124.041 23.888C123.774 24.3787 123.641 24.9493 123.641 25.6C123.641 26.2613 123.774 26.8427 124.041 27.344C124.318 27.8347 124.681 28.2133 125.129 28.48C125.588 28.736 126.084 28.864 126.617 28.864C127.161 28.864 127.657 28.736 128.105 28.48C128.564 28.2133 128.926 27.8347 129.193 27.344C129.46 26.8427 129.593 26.256 129.593 25.584ZM140.998 25.28C140.998 25.5573 140.982 25.8507 140.95 26.16H133.942C133.995 27.024 134.288 27.7013 134.822 28.192C135.366 28.672 136.022 28.912 136.79 28.912C137.419 28.912 137.942 28.768 138.358 28.48C138.784 28.1813 139.083 27.7867 139.254 27.296H140.822C140.587 28.1387 140.118 28.8267 139.414 29.36C138.71 29.8827 137.835 30.144 136.79 30.144C135.958 30.144 135.211 29.9573 134.55 29.584C133.899 29.2107 133.387 28.6827 133.014 28C132.64 27.3067 132.454 26.5067 132.454 25.6C132.454 24.6933 132.635 23.8987 132.998 23.216C133.36 22.5333 133.867 22.0107 134.518 21.648C135.179 21.2747 135.936 21.088 136.79 21.088C137.622 21.088 138.358 21.2693 138.998 21.632C139.638 21.9947 140.128 22.496 140.47 23.136C140.822 23.7653 140.998 24.48 140.998 25.28ZM139.494 24.976C139.494 24.4213 139.371 23.9467 139.126 23.552C138.88 23.1467 138.544 22.8427 138.118 22.64C137.702 22.4267 137.238 22.32 136.726 22.32C135.99 22.32 135.36 22.5547 134.838 23.024C134.326 23.4933 134.032 24.144 133.958 24.976H139.494Z" fill="#616161"/>
<path d="M40.688 22.112C40.688 23.04 40.368 23.8133 39.728 24.432C39.0987 25.04 38.1333 25.344 36.832 25.344H34.688V30H33.232V18.848H36.832C38.0907 18.848 39.0453 19.152 39.696 19.76C40.3573 20.368 40.688 21.152 40.688 22.112ZM36.832 24.144C37.6427 24.144 38.24 23.968 38.624 23.616C39.008 23.264 39.2 22.7627 39.2 22.112C39.2 20.736 38.4107 20.048 36.832 20.048H34.688V24.144H36.832ZM43.9536 22.656C44.2096 22.1547 44.5723 21.7653 45.0416 21.488C45.5216 21.2107 46.103 21.072 46.7856 21.072V22.576H46.4016C44.7696 22.576 43.9536 23.4613 43.9536 25.232V30H42.4976V21.232H43.9536V22.656ZM52.2904 30.144C51.469 30.144 50.7224 29.9573 50.0504 29.584C49.389 29.2107 48.8664 28.6827 48.4824 28C48.109 27.3067 47.9224 26.5067 47.9224 25.6C47.9224 24.704 48.1144 23.9147 48.4984 23.232C48.893 22.5387 49.4264 22.0107 50.0984 21.648C50.7704 21.2747 51.5224 21.088 52.3544 21.088C53.1864 21.088 53.9384 21.2747 54.6104 21.648C55.2824 22.0107 55.8104 22.5333 56.1944 23.216C56.589 23.8987 56.7864 24.6933 56.7864 25.6C56.7864 26.5067 56.5837 27.3067 56.1784 28C55.7837 28.6827 55.245 29.2107 54.5624 29.584C53.8797 29.9573 53.1224 30.144 52.2904 30.144ZM52.2904 28.864C52.813 28.864 53.3037 28.7413 53.7624 28.496C54.221 28.2507 54.589 27.8827 54.8664 27.392C55.1544 26.9013 55.2984 26.304 55.2984 25.6C55.2984 24.896 55.1597 24.2987 54.8824 23.808C54.605 23.3173 54.2424 22.9547 53.7944 22.72C53.3464 22.4747 52.861 22.352 52.3384 22.352C51.805 22.352 51.3144 22.4747 50.8664 22.72C50.429 22.9547 50.077 23.3173 49.8104 23.808C49.5437 24.2987 49.4104 24.896 49.4104 25.6C49.4104 26.3147 49.5384 26.9173 49.7944 27.408C50.061 27.8987 50.413 28.2667 50.8504 28.512C51.2877 28.7467 51.7677 28.864 52.2904 28.864ZM60.1568 22.848C60.4448 22.3467 60.8714 21.9307 61.4368 21.6C62.0128 21.2587 62.6794 21.088 63.4368 21.088C64.2154 21.088 64.9194 21.2747 65.5487 21.648C66.1887 22.0213 66.6901 22.5493 67.0528 23.232C67.4154 23.904 67.5968 24.688 67.5968 25.584C67.5968 26.4693 67.4154 27.2587 67.0528 27.952C66.6901 28.6453 66.1887 29.184 65.5487 29.568C64.9194 29.952 64.2154 30.144 63.4368 30.144C62.6901 30.144 62.0288 29.9787 61.4528 29.648C60.8874 29.3067 60.4554 28.8853 60.1568 28.384V34.16H58.7008V21.232H60.1568V22.848ZM66.1088 25.584C66.1088 24.9227 65.9754 24.3467 65.7088 23.856C65.4421 23.3653 65.0794 22.992 64.6208 22.736C64.1728 22.48 63.6768 22.352 63.1328 22.352C62.5994 22.352 62.1034 22.4853 61.6448 22.752C61.1968 23.008 60.8341 23.3867 60.5568 23.888C60.2901 24.3787 60.1568 24.9493 60.1568 25.6C60.1568 26.2613 60.2901 26.8427 60.5568 27.344C60.8341 27.8347 61.1968 28.2133 61.6448 28.48C62.1034 28.736 62.5994 28.864 63.1328 28.864C63.6768 28.864 64.1728 28.736 64.6208 28.48C65.0794 28.2133 65.4421 27.8347 65.7088 27.344C65.9754 26.8427 66.1088 26.256 66.1088 25.584ZM77.5133 25.28C77.5133 25.5573 77.4973 25.8507 77.4653 26.16H70.4573C70.5106 27.024 70.8039 27.7013 71.3373 28.192C71.8813 28.672 72.5373 28.912 73.3053 28.912C73.9346 28.912 74.4573 28.768 74.8733 28.48C75.2999 28.1813 75.5986 27.7867 75.7693 27.296H77.3373C77.1026 28.1387 76.6333 28.8267 75.9293 29.36C75.2253 29.8827 74.3506 30.144 73.3053 30.144C72.4733 30.144 71.7266 29.9573 71.0653 29.584C70.4146 29.2107 69.9026 28.6827 69.5293 28C69.1559 27.3067 68.9693 26.5067 68.9693 25.6C68.9693 24.6933 69.1506 23.8987 69.5133 23.216C69.8759 22.5333 70.3826 22.0107 71.0333 21.648C71.6946 21.2747 72.4519 21.088 73.3053 21.088C74.1373 21.088 74.8733 21.2693 75.5133 21.632C76.1533 21.9947 76.6439 22.496 76.9853 23.136C77.3373 23.7653 77.5133 24.48 77.5133 25.28ZM76.0093 24.976C76.0093 24.4213 75.8866 23.9467 75.6413 23.552C75.3959 23.1467 75.0599 22.8427 74.6333 22.64C74.2173 22.4267 73.7533 22.32 73.2413 22.32C72.5053 22.32 71.8759 22.5547 71.3533 23.024C70.8413 23.4933 70.5479 24.144 70.4733 24.976H76.0093ZM80.8911 22.656C81.1471 22.1547 81.5098 21.7653 81.9791 21.488C82.4591 21.2107 83.0405 21.072 83.7231 21.072V22.576H83.3391C81.7071 22.576 80.8911 23.4613 80.8911 25.232V30H79.4351V21.232H80.8911V22.656ZM87.1799 22.432V27.6C87.1799 28.0267 87.2705 28.3307 87.4519 28.512C87.6332 28.6827 87.9479 28.768 88.3959 28.768H89.4679V30H88.1559C87.3452 30 86.7372 29.8133 86.3319 29.44C85.9265 29.0667 85.7239 28.4533 85.7239 27.6V22.432H84.5879V21.232H85.7239V19.024H87.1799V21.232H89.4679V22.432H87.1799ZM98.784 21.232L93.504 34.128H92L93.728 29.904L90.192 21.232H91.808L94.56 28.336L97.28 21.232H98.784ZM111.377 18.848V20.032H108.337V30H106.881V20.032H103.825V18.848H111.377ZM120.722 21.232L115.442 34.128H113.938L115.666 29.904L112.13 21.232H113.746L116.498 28.336L119.218 21.232H120.722ZM123.641 22.848C123.929 22.3467 124.356 21.9307 124.921 21.6C125.497 21.2587 126.164 21.088 126.921 21.088C127.7 21.088 128.404 21.2747 129.033 21.648C129.673 22.0213 130.174 22.5493 130.537 23.232C130.9 23.904 131.081 24.688 131.081 25.584C131.081 26.4693 130.9 27.2587 130.537 27.952C130.174 28.6453 129.673 29.184 129.033 29.568C128.404 29.952 127.7 30.144 126.921 30.144C126.174 30.144 125.513 29.9787 124.937 29.648C124.372 29.3067 123.94 28.8853 123.641 28.384V34.16H122.185V21.232H123.641V22.848ZM129.593 25.584C129.593 24.9227 129.46 24.3467 129.193 23.856C128.926 23.3653 128.564 22.992 128.105 22.736C127.657 22.48 127.161 22.352 126.617 22.352C126.084 22.352 125.588 22.4853 125.129 22.752C124.681 23.008 124.318 23.3867 124.041 23.888C123.774 24.3787 123.641 24.9493 123.641 25.6C123.641 26.2613 123.774 26.8427 124.041 27.344C124.318 27.8347 124.681 28.2133 125.129 28.48C125.588 28.736 126.084 28.864 126.617 28.864C127.161 28.864 127.657 28.736 128.105 28.48C128.564 28.2133 128.926 27.8347 129.193 27.344C129.46 26.8427 129.593 26.256 129.593 25.584ZM140.998 25.28C140.998 25.5573 140.982 25.8507 140.95 26.16H133.942C133.995 27.024 134.288 27.7013 134.822 28.192C135.366 28.672 136.022 28.912 136.79 28.912C137.419 28.912 137.942 28.768 138.358 28.48C138.784 28.1813 139.083 27.7867 139.254 27.296H140.822C140.587 28.1387 140.118 28.8267 139.414 29.36C138.71 29.8827 137.835 30.144 136.79 30.144C135.958 30.144 135.211 29.9573 134.55 29.584C133.899 29.2107 133.387 28.6827 133.014 28C132.64 27.3067 132.454 26.5067 132.454 25.6C132.454 24.6933 132.635 23.8987 132.998 23.216C133.36 22.5333 133.867 22.0107 134.518 21.648C135.179 21.2747 135.936 21.088 136.79 21.088C137.622 21.088 138.358 21.2693 138.998 21.632C139.638 21.9947 140.128 22.496 140.47 23.136C140.822 23.7653 140.998 24.48 140.998 25.28ZM139.494 24.976C139.494 24.4213 139.371 23.9467 139.126 23.552C138.88 23.1467 138.544 22.8427 138.118 22.64C137.702 22.4267 137.238 22.32 136.726 22.32C135.99 22.32 135.36 22.5547 134.838 23.024C134.326 23.4933 134.032 24.144 133.958 24.976H139.494Z" fill="black" fill-opacity="0.2"/>
<path d="M40.688 22.112C40.688 23.04 40.368 23.8133 39.728 24.432C39.0987 25.04 38.1333 25.344 36.832 25.344H34.688V30H33.232V18.848H36.832C38.0907 18.848 39.0453 19.152 39.696 19.76C40.3573 20.368 40.688 21.152 40.688 22.112ZM36.832 24.144C37.6427 24.144 38.24 23.968 38.624 23.616C39.008 23.264 39.2 22.7627 39.2 22.112C39.2 20.736 38.4107 20.048 36.832 20.048H34.688V24.144H36.832ZM43.9536 22.656C44.2096 22.1547 44.5723 21.7653 45.0416 21.488C45.5216 21.2107 46.103 21.072 46.7856 21.072V22.576H46.4016C44.7696 22.576 43.9536 23.4613 43.9536 25.232V30H42.4976V21.232H43.9536V22.656ZM52.2904 30.144C51.469 30.144 50.7224 29.9573 50.0504 29.584C49.389 29.2107 48.8664 28.6827 48.4824 28C48.109 27.3067 47.9224 26.5067 47.9224 25.6C47.9224 24.704 48.1144 23.9147 48.4984 23.232C48.893 22.5387 49.4264 22.0107 50.0984 21.648C50.7704 21.2747 51.5224 21.088 52.3544 21.088C53.1864 21.088 53.9384 21.2747 54.6104 21.648C55.2824 22.0107 55.8104 22.5333 56.1944 23.216C56.589 23.8987 56.7864 24.6933 56.7864 25.6C56.7864 26.5067 56.5837 27.3067 56.1784 28C55.7837 28.6827 55.245 29.2107 54.5624 29.584C53.8797 29.9573 53.1224 30.144 52.2904 30.144ZM52.2904 28.864C52.813 28.864 53.3037 28.7413 53.7624 28.496C54.221 28.2507 54.589 27.8827 54.8664 27.392C55.1544 26.9013 55.2984 26.304 55.2984 25.6C55.2984 24.896 55.1597 24.2987 54.8824 23.808C54.605 23.3173 54.2424 22.9547 53.7944 22.72C53.3464 22.4747 52.861 22.352 52.3384 22.352C51.805 22.352 51.3144 22.4747 50.8664 22.72C50.429 22.9547 50.077 23.3173 49.8104 23.808C49.5437 24.2987 49.4104 24.896 49.4104 25.6C49.4104 26.3147 49.5384 26.9173 49.7944 27.408C50.061 27.8987 50.413 28.2667 50.8504 28.512C51.2877 28.7467 51.7677 28.864 52.2904 28.864ZM60.1568 22.848C60.4448 22.3467 60.8714 21.9307 61.4368 21.6C62.0128 21.2587 62.6794 21.088 63.4368 21.088C64.2154 21.088 64.9194 21.2747 65.5487 21.648C66.1887 22.0213 66.6901 22.5493 67.0528 23.232C67.4154 23.904 67.5968 24.688 67.5968 25.584C67.5968 26.4693 67.4154 27.2587 67.0528 27.952C66.6901 28.6453 66.1887 29.184 65.5487 29.568C64.9194 29.952 64.2154 30.144 63.4368 30.144C62.6901 30.144 62.0288 29.9787 61.4528 29.648C60.8874 29.3067 60.4554 28.8853 60.1568 28.384V34.16H58.7008V21.232H60.1568V22.848ZM66.1088 25.584C66.1088 24.9227 65.9754 24.3467 65.7088 23.856C65.4421 23.3653 65.0794 22.992 64.6208 22.736C64.1728 22.48 63.6768 22.352 63.1328 22.352C62.5994 22.352 62.1034 22.4853 61.6448 22.752C61.1968 23.008 60.8341 23.3867 60.5568 23.888C60.2901 24.3787 60.1568 24.9493 60.1568 25.6C60.1568 26.2613 60.2901 26.8427 60.5568 27.344C60.8341 27.8347 61.1968 28.2133 61.6448 28.48C62.1034 28.736 62.5994 28.864 63.1328 28.864C63.6768 28.864 64.1728 28.736 64.6208 28.48C65.0794 28.2133 65.4421 27.8347 65.7088 27.344C65.9754 26.8427 66.1088 26.256 66.1088 25.584ZM77.5133 25.28C77.5133 25.5573 77.4973 25.8507 77.4653 26.16H70.4573C70.5106 27.024 70.8039 27.7013 71.3373 28.192C71.8813 28.672 72.5373 28.912 73.3053 28.912C73.9346 28.912 74.4573 28.768 74.8733 28.48C75.2999 28.1813 75.5986 27.7867 75.7693 27.296H77.3373C77.1026 28.1387 76.6333 28.8267 75.9293 29.36C75.2253 29.8827 74.3506 30.144 73.3053 30.144C72.4733 30.144 71.7266 29.9573 71.0653 29.584C70.4146 29.2107 69.9026 28.6827 69.5293 28C69.1559 27.3067 68.9693 26.5067 68.9693 25.6C68.9693 24.6933 69.1506 23.8987 69.5133 23.216C69.8759 22.5333 70.3826 22.0107 71.0333 21.648C71.6946 21.2747 72.4519 21.088 73.3053 21.088C74.1373 21.088 74.8733 21.2693 75.5133 21.632C76.1533 21.9947 76.6439 22.496 76.9853 23.136C77.3373 23.7653 77.5133 24.48 77.5133 25.28ZM76.0093 24.976C76.0093 24.4213 75.8866 23.9467 75.6413 23.552C75.3959 23.1467 75.0599 22.8427 74.6333 22.64C74.2173 22.4267 73.7533 22.32 73.2413 22.32C72.5053 22.32 71.8759 22.5547 71.3533 23.024C70.8413 23.4933 70.5479 24.144 70.4733 24.976H76.0093ZM80.8911 22.656C81.1471 22.1547 81.5098 21.7653 81.9791 21.488C82.4591 21.2107 83.0405 21.072 83.7231 21.072V22.576H83.3391C81.7071 22.576 80.8911 23.4613 80.8911 25.232V30H79.4351V21.232H80.8911V22.656ZM87.1799 22.432V27.6C87.1799 28.0267 87.2705 28.3307 87.4519 28.512C87.6332 28.6827 87.9479 28.768 88.3959 28.768H89.4679V30H88.1559C87.3452 30 86.7372 29.8133 86.3319 29.44C85.9265 29.0667 85.7239 28.4533 85.7239 27.6V22.432H84.5879V21.232H85.7239V19.024H87.1799V21.232H89.4679V22.432H87.1799ZM98.784 21.232L93.504 34.128H92L93.728 29.904L90.192 21.232H91.808L94.56 28.336L97.28 21.232H98.784ZM111.377 18.848V20.032H108.337V30H106.881V20.032H103.825V18.848H111.377ZM120.722 21.232L115.442 34.128H113.938L115.666 29.904L112.13 21.232H113.746L116.498 28.336L119.218 21.232H120.722ZM123.641 22.848C123.929 22.3467 124.356 21.9307 124.921 21.6C125.497 21.2587 126.164 21.088 126.921 21.088C127.7 21.088 128.404 21.2747 129.033 21.648C129.673 22.0213 130.174 22.5493 130.537 23.232C130.9 23.904 131.081 24.688 131.081 25.584C131.081 26.4693 130.9 27.2587 130.537 27.952C130.174 28.6453 129.673 29.184 129.033 29.568C128.404 29.952 127.7 30.144 126.921 30.144C126.174 30.144 125.513 29.9787 124.937 29.648C124.372 29.3067 123.94 28.8853 123.641 28.384V34.16H122.185V21.232H123.641V22.848ZM129.593 25.584C129.593 24.9227 129.46 24.3467 129.193 23.856C128.926 23.3653 128.564 22.992 128.105 22.736C127.657 22.48 127.161 22.352 126.617 22.352C126.084 22.352 125.588 22.4853 125.129 22.752C124.681 23.008 124.318 23.3867 124.041 23.888C123.774 24.3787 123.641 24.9493 123.641 25.6C123.641 26.2613 123.774 26.8427 124.041 27.344C124.318 27.8347 124.681 28.2133 125.129 28.48C125.588 28.736 126.084 28.864 126.617 28.864C127.161 28.864 127.657 28.736 128.105 28.48C128.564 28.2133 128.926 27.8347 129.193 27.344C129.46 26.8427 129.593 26.256 129.593 25.584ZM140.998 25.28C140.998 25.5573 140.982 25.8507 140.95 26.16H133.942C133.995 27.024 134.288 27.7013 134.822 28.192C135.366 28.672 136.022 28.912 136.79 28.912C137.419 28.912 137.942 28.768 138.358 28.48C138.784 28.1813 139.083 27.7867 139.254 27.296H140.822C140.587 28.1387 140.118 28.8267 139.414 29.36C138.71 29.8827 137.835 30.144 136.79 30.144C135.958 30.144 135.211 29.9573 134.55 29.584C133.899 29.2107 133.387 28.6827 133.014 28C132.64 27.3067 132.454 26.5067 132.454 25.6C132.454 24.6933 132.635 23.8987 132.998 23.216C133.36 22.5333 133.867 22.0107 134.518 21.648C135.179 21.2747 135.936 21.088 136.79 21.088C137.622 21.088 138.358 21.2693 138.998 21.632C139.638 21.9947 140.128 22.496 140.47 23.136C140.822 23.7653 140.998 24.48 140.998 25.28ZM139.494 24.976C139.494 24.4213 139.371 23.9467 139.126 23.552C138.88 23.1467 138.544 22.8427 138.118 22.64C137.702 22.4267 137.238 22.32 136.726 22.32C135.99 22.32 135.36 22.5547 134.838 23.024C134.326 23.4933 134.032 24.144 133.958 24.976H139.494Z" fill="black" fill-opacity="0.2"/>
<path d="M40.688 22.112C40.688 23.04 40.368 23.8133 39.728 24.432C39.0987 25.04 38.1333 25.344 36.832 25.344H34.688V30H33.232V18.848H36.832C38.0907 18.848 39.0453 19.152 39.696 19.76C40.3573 20.368 40.688 21.152 40.688 22.112ZM36.832 24.144C37.6427 24.144 38.24 23.968 38.624 23.616C39.008 23.264 39.2 22.7627 39.2 22.112C39.2 20.736 38.4107 20.048 36.832 20.048H34.688V24.144H36.832ZM43.9536 22.656C44.2096 22.1547 44.5723 21.7653 45.0416 21.488C45.5216 21.2107 46.103 21.072 46.7856 21.072V22.576H46.4016C44.7696 22.576 43.9536 23.4613 43.9536 25.232V30H42.4976V21.232H43.9536V22.656ZM52.2904 30.144C51.469 30.144 50.7224 29.9573 50.0504 29.584C49.389 29.2107 48.8664 28.6827 48.4824 28C48.109 27.3067 47.9224 26.5067 47.9224 25.6C47.9224 24.704 48.1144 23.9147 48.4984 23.232C48.893 22.5387 49.4264 22.0107 50.0984 21.648C50.7704 21.2747 51.5224 21.088 52.3544 21.088C53.1864 21.088 53.9384 21.2747 54.6104 21.648C55.2824 22.0107 55.8104 22.5333 56.1944 23.216C56.589 23.8987 56.7864 24.6933 56.7864 25.6C56.7864 26.5067 56.5837 27.3067 56.1784 28C55.7837 28.6827 55.245 29.2107 54.5624 29.584C53.8797 29.9573 53.1224 30.144 52.2904 30.144ZM52.2904 28.864C52.813 28.864 53.3037 28.7413 53.7624 28.496C54.221 28.2507 54.589 27.8827 54.8664 27.392C55.1544 26.9013 55.2984 26.304 55.2984 25.6C55.2984 24.896 55.1597 24.2987 54.8824 23.808C54.605 23.3173 54.2424 22.9547 53.7944 22.72C53.3464 22.4747 52.861 22.352 52.3384 22.352C51.805 22.352 51.3144 22.4747 50.8664 22.72C50.429 22.9547 50.077 23.3173 49.8104 23.808C49.5437 24.2987 49.4104 24.896 49.4104 25.6C49.4104 26.3147 49.5384 26.9173 49.7944 27.408C50.061 27.8987 50.413 28.2667 50.8504 28.512C51.2877 28.7467 51.7677 28.864 52.2904 28.864ZM60.1568 22.848C60.4448 22.3467 60.8714 21.9307 61.4368 21.6C62.0128 21.2587 62.6794 21.088 63.4368 21.088C64.2154 21.088 64.9194 21.2747 65.5487 21.648C66.1887 22.0213 66.6901 22.5493 67.0528 23.232C67.4154 23.904 67.5968 24.688 67.5968 25.584C67.5968 26.4693 67.4154 27.2587 67.0528 27.952C66.6901 28.6453 66.1887 29.184 65.5487 29.568C64.9194 29.952 64.2154 30.144 63.4368 30.144C62.6901 30.144 62.0288 29.9787 61.4528 29.648C60.8874 29.3067 60.4554 28.8853 60.1568 28.384V34.16H58.7008V21.232H60.1568V22.848ZM66.1088 25.584C66.1088 24.9227 65.9754 24.3467 65.7088 23.856C65.4421 23.3653 65.0794 22.992 64.6208 22.736C64.1728 22.48 63.6768 22.352 63.1328 22.352C62.5994 22.352 62.1034 22.4853 61.6448 22.752C61.1968 23.008 60.8341 23.3867 60.5568 23.888C60.2901 24.3787 60.1568 24.9493 60.1568 25.6C60.1568 26.2613 60.2901 26.8427 60.5568 27.344C60.8341 27.8347 61.1968 28.2133 61.6448 28.48C62.1034 28.736 62.5994 28.864 63.1328 28.864C63.6768 28.864 64.1728 28.736 64.6208 28.48C65.0794 28.2133 65.4421 27.8347 65.7088 27.344C65.9754 26.8427 66.1088 26.256 66.1088 25.584ZM77.5133 25.28C77.5133 25.5573 77.4973 25.8507 77.4653 26.16H70.4573C70.5106 27.024 70.8039 27.7013 71.3373 28.192C71.8813 28.672 72.5373 28.912 73.3053 28.912C73.9346 28.912 74.4573 28.768 74.8733 28.48C75.2999 28.1813 75.5986 27.7867 75.7693 27.296H77.3373C77.1026 28.1387 76.6333 28.8267 75.9293 29.36C75.2253 29.8827 74.3506 30.144 73.3053 30.144C72.4733 30.144 71.7266 29.9573 71.0653 29.584C70.4146 29.2107 69.9026 28.6827 69.5293 28C69.1559 27.3067 68.9693 26.5067 68.9693 25.6C68.9693 24.6933 69.1506 23.8987 69.5133 23.216C69.8759 22.5333 70.3826 22.0107 71.0333 21.648C71.6946 21.2747 72.4519 21.088 73.3053 21.088C74.1373 21.088 74.8733 21.2693 75.5133 21.632C76.1533 21.9947 76.6439 22.496 76.9853 23.136C77.3373 23.7653 77.5133 24.48 77.5133 25.28ZM76.0093 24.976C76.0093 24.4213 75.8866 23.9467 75.6413 23.552C75.3959 23.1467 75.0599 22.8427 74.6333 22.64C74.2173 22.4267 73.7533 22.32 73.2413 22.32C72.5053 22.32 71.8759 22.5547 71.3533 23.024C70.8413 23.4933 70.5479 24.144 70.4733 24.976H76.0093ZM80.8911 22.656C81.1471 22.1547 81.5098 21.7653 81.9791 21.488C82.4591 21.2107 83.0405 21.072 83.7231 21.072V22.576H83.3391C81.7071 22.576 80.8911 23.4613 80.8911 25.232V30H79.4351V21.232H80.8911V22.656ZM87.1799 22.432V27.6C87.1799 28.0267 87.2705 28.3307 87.4519 28.512C87.6332 28.6827 87.9479 28.768 88.3959 28.768H89.4679V30H88.1559C87.3452 30 86.7372 29.8133 86.3319 29.44C85.9265 29.0667 85.7239 28.4533 85.7239 27.6V22.432H84.5879V21.232H85.7239V19.024H87.1799V21.232H89.4679V22.432H87.1799ZM98.784 21.232L93.504 34.128H92L93.728 29.904L90.192 21.232H91.808L94.56 28.336L97.28 21.232H98.784ZM111.377 18.848V20.032H108.337V30H106.881V20.032H103.825V18.848H111.377ZM120.722 21.232L115.442 34.128H113.938L115.666 29.904L112.13 21.232H113.746L116.498 28.336L119.218 21.232H120.722ZM123.641 22.848C123.929 22.3467 124.356 21.9307 124.921 21.6C125.497 21.2587 126.164 21.088 126.921 21.088C127.7 21.088 128.404 21.2747 129.033 21.648C129.673 22.0213 130.174 22.5493 130.537 23.232C130.9 23.904 131.081 24.688 131.081 25.584C131.081 26.4693 130.9 27.2587 130.537 27.952C130.174 28.6453 129.673 29.184 129.033 29.568C128.404 29.952 127.7 30.144 126.921 30.144C126.174 30.144 125.513 29.9787 124.937 29.648C124.372 29.3067 123.94 28.8853 123.641 28.384V34.16H122.185V21.232H123.641V22.848ZM129.593 25.584C129.593 24.9227 129.46 24.3467 129.193 23.856C128.926 23.3653 128.564 22.992 128.105 22.736C127.657 22.48 127.161 22.352 126.617 22.352C126.084 22.352 125.588 22.4853 125.129 22.752C124.681 23.008 124.318 23.3867 124.041 23.888C123.774 24.3787 123.641 24.9493 123.641 25.6C123.641 26.2613 123.774 26.8427 124.041 27.344C124.318 27.8347 124.681 28.2133 125.129 28.48C125.588 28.736 126.084 28.864 126.617 28.864C127.161 28.864 127.657 28.736 128.105 28.48C128.564 28.2133 128.926 27.8347 129.193 27.344C129.46 26.8427 129.593 26.256 129.593 25.584ZM140.998 25.28C140.998 25.5573 140.982 25.8507 140.95 26.16H133.942C133.995 27.024 134.288 27.7013 134.822 28.192C135.366 28.672 136.022 28.912 136.79 28.912C137.419 28.912 137.942 28.768 138.358 28.48C138.784 28.1813 139.083 27.7867 139.254 27.296H140.822C140.587 28.1387 140.118 28.8267 139.414 29.36C138.71 29.8827 137.835 30.144 136.79 30.144C135.958 30.144 135.211 29.9573 134.55 29.584C133.899 29.2107 133.387 28.6827 133.014 28C132.64 27.3067 132.454 26.5067 132.454 25.6C132.454 24.6933 132.635 23.8987 132.998 23.216C133.36 22.5333 133.867 22.0107 134.518 21.648C135.179 21.2747 135.936 21.088 136.79 21.088C137.622 21.088 138.358 21.2693 138.998 21.632C139.638 21.9947 140.128 22.496 140.47 23.136C140.822 23.7653 140.998 24.48 140.998 25.28ZM139.494 24.976C139.494 24.4213 139.371 23.9467 139.126 23.552C138.88 23.1467 138.544 22.8427 138.118 22.64C137.702 22.4267 137.238 22.32 136.726 22.32C135.99 22.32 135.36 22.5547 134.838 23.024C134.326 23.4933 134.032 24.144 133.958 24.976H139.494Z" fill="black" fill-opacity="0.2"/>
<path d="M40.688 22.112C40.688 23.04 40.368 23.8133 39.728 24.432C39.0987 25.04 38.1333 25.344 36.832 25.344H34.688V30H33.232V18.848H36.832C38.0907 18.848 39.0453 19.152 39.696 19.76C40.3573 20.368 40.688 21.152 40.688 22.112ZM36.832 24.144C37.6427 24.144 38.24 23.968 38.624 23.616C39.008 23.264 39.2 22.7627 39.2 22.112C39.2 20.736 38.4107 20.048 36.832 20.048H34.688V24.144H36.832ZM43.9536 22.656C44.2096 22.1547 44.5723 21.7653 45.0416 21.488C45.5216 21.2107 46.103 21.072 46.7856 21.072V22.576H46.4016C44.7696 22.576 43.9536 23.4613 43.9536 25.232V30H42.4976V21.232H43.9536V22.656ZM52.2904 30.144C51.469 30.144 50.7224 29.9573 50.0504 29.584C49.389 29.2107 48.8664 28.6827 48.4824 28C48.109 27.3067 47.9224 26.5067 47.9224 25.6C47.9224 24.704 48.1144 23.9147 48.4984 23.232C48.893 22.5387 49.4264 22.0107 50.0984 21.648C50.7704 21.2747 51.5224 21.088 52.3544 21.088C53.1864 21.088 53.9384 21.2747 54.6104 21.648C55.2824 22.0107 55.8104 22.5333 56.1944 23.216C56.589 23.8987 56.7864 24.6933 56.7864 25.6C56.7864 26.5067 56.5837 27.3067 56.1784 28C55.7837 28.6827 55.245 29.2107 54.5624 29.584C53.8797 29.9573 53.1224 30.144 52.2904 30.144ZM52.2904 28.864C52.813 28.864 53.3037 28.7413 53.7624 28.496C54.221 28.2507 54.589 27.8827 54.8664 27.392C55.1544 26.9013 55.2984 26.304 55.2984 25.6C55.2984 24.896 55.1597 24.2987 54.8824 23.808C54.605 23.3173 54.2424 22.9547 53.7944 22.72C53.3464 22.4747 52.861 22.352 52.3384 22.352C51.805 22.352 51.3144 22.4747 50.8664 22.72C50.429 22.9547 50.077 23.3173 49.8104 23.808C49.5437 24.2987 49.4104 24.896 49.4104 25.6C49.4104 26.3147 49.5384 26.9173 49.7944 27.408C50.061 27.8987 50.413 28.2667 50.8504 28.512C51.2877 28.7467 51.7677 28.864 52.2904 28.864ZM60.1568 22.848C60.4448 22.3467 60.8714 21.9307 61.4368 21.6C62.0128 21.2587 62.6794 21.088 63.4368 21.088C64.2154 21.088 64.9194 21.2747 65.5487 21.648C66.1887 22.0213 66.6901 22.5493 67.0528 23.232C67.4154 23.904 67.5968 24.688 67.5968 25.584C67.5968 26.4693 67.4154 27.2587 67.0528 27.952C66.6901 28.6453 66.1887 29.184 65.5487 29.568C64.9194 29.952 64.2154 30.144 63.4368 30.144C62.6901 30.144 62.0288 29.9787 61.4528 29.648C60.8874 29.3067 60.4554 28.8853 60.1568 28.384V34.16H58.7008V21.232H60.1568V22.848ZM66.1088 25.584C66.1088 24.9227 65.9754 24.3467 65.7088 23.856C65.4421 23.3653 65.0794 22.992 64.6208 22.736C64.1728 22.48 63.6768 22.352 63.1328 22.352C62.5994 22.352 62.1034 22.4853 61.6448 22.752C61.1968 23.008 60.8341 23.3867 60.5568 23.888C60.2901 24.3787 60.1568 24.9493 60.1568 25.6C60.1568 26.2613 60.2901 26.8427 60.5568 27.344C60.8341 27.8347 61.1968 28.2133 61.6448 28.48C62.1034 28.736 62.5994 28.864 63.1328 28.864C63.6768 28.864 64.1728 28.736 64.6208 28.48C65.0794 28.2133 65.4421 27.8347 65.7088 27.344C65.9754 26.8427 66.1088 26.256 66.1088 25.584ZM77.5133 25.28C77.5133 25.5573 77.4973 25.8507 77.4653 26.16H70.4573C70.5106 27.024 70.8039 27.7013 71.3373 28.192C71.8813 28.672 72.5373 28.912 73.3053 28.912C73.9346 28.912 74.4573 28.768 74.8733 28.48C75.2999 28.1813 75.5986 27.7867 75.7693 27.296H77.3373C77.1026 28.1387 76.6333 28.8267 75.9293 29.36C75.2253 29.8827 74.3506 30.144 73.3053 30.144C72.4733 30.144 71.7266 29.9573 71.0653 29.584C70.4146 29.2107 69.9026 28.6827 69.5293 28C69.1559 27.3067 68.9693 26.5067 68.9693 25.6C68.9693 24.6933 69.1506 23.8987 69.5133 23.216C69.8759 22.5333 70.3826 22.0107 71.0333 21.648C71.6946 21.2747 72.4519 21.088 73.3053 21.088C74.1373 21.088 74.8733 21.2693 75.5133 21.632C76.1533 21.9947 76.6439 22.496 76.9853 23.136C77.3373 23.7653 77.5133 24.48 77.5133 25.28ZM76.0093 24.976C76.0093 24.4213 75.8866 23.9467 75.6413 23.552C75.3959 23.1467 75.0599 22.8427 74.6333 22.64C74.2173 22.4267 73.7533 22.32 73.2413 22.32C72.5053 22.32 71.8759 22.5547 71.3533 23.024C70.8413 23.4933 70.5479 24.144 70.4733 24.976H76.0093ZM80.8911 22.656C81.1471 22.1547 81.5098 21.7653 81.9791 21.488C82.4591 21.2107 83.0405 21.072 83.7231 21.072V22.576H83.3391C81.7071 22.576 80.8911 23.4613 80.8911 25.232V30H79.4351V21.232H80.8911V22.656ZM87.1799 22.432V27.6C87.1799 28.0267 87.2705 28.3307 87.4519 28.512C87.6332 28.6827 87.9479 28.768 88.3959 28.768H89.4679V30H88.1559C87.3452 30 86.7372 29.8133 86.3319 29.44C85.9265 29.0667 85.7239 28.4533 85.7239 27.6V22.432H84.5879V21.232H85.7239V19.024H87.1799V21.232H89.4679V22.432H87.1799ZM98.784 21.232L93.504 34.128H92L93.728 29.904L90.192 21.232H91.808L94.56 28.336L97.28 21.232H98.784ZM111.377 18.848V20.032H108.337V30H106.881V20.032H103.825V18.848H111.377ZM120.722 21.232L115.442 34.128H113.938L115.666 29.904L112.13 21.232H113.746L116.498 28.336L119.218 21.232H120.722ZM123.641 22.848C123.929 22.3467 124.356 21.9307 124.921 21.6C125.497 21.2587 126.164 21.088 126.921 21.088C127.7 21.088 128.404 21.2747 129.033 21.648C129.673 22.0213 130.174 22.5493 130.537 23.232C130.9 23.904 131.081 24.688 131.081 25.584C131.081 26.4693 130.9 27.2587 130.537 27.952C130.174 28.6453 129.673 29.184 129.033 29.568C128.404 29.952 127.7 30.144 126.921 30.144C126.174 30.144 125.513 29.9787 124.937 29.648C124.372 29.3067 123.94 28.8853 123.641 28.384V34.16H122.185V21.232H123.641V22.848ZM129.593 25.584C129.593 24.9227 129.46 24.3467 129.193 23.856C128.926 23.3653 128.564 22.992 128.105 22.736C127.657 22.48 127.161 22.352 126.617 22.352C126.084 22.352 125.588 22.4853 125.129 22.752C124.681 23.008 124.318 23.3867 124.041 23.888C123.774 24.3787 123.641 24.9493 123.641 25.6C123.641 26.2613 123.774 26.8427 124.041 27.344C124.318 27.8347 124.681 28.2133 125.129 28.48C125.588 28.736 126.084 28.864 126.617 28.864C127.161 28.864 127.657 28.736 128.105 28.48C128.564 28.2133 128.926 27.8347 129.193 27.344C129.46 26.8427 129.593 26.256 129.593 25.584ZM140.998 25.28C140.998 25.5573 140.982 25.8507 140.95 26.16H133.942C133.995 27.024 134.288 27.7013 134.822 28.192C135.366 28.672 136.022 28.912 136.79 28.912C137.419 28.912 137.942 28.768 138.358 28.48C138.784 28.1813 139.083 27.7867 139.254 27.296H140.822C140.587 28.1387 140.118 28.8267 139.414 29.36C138.71 29.8827 137.835 30.144 136.79 30.144C135.958 30.144 135.211 29.9573 134.55 29.584C133.899 29.2107 133.387 28.6827 133.014 28C132.64 27.3067 132.454 26.5067 132.454 25.6C132.454 24.6933 132.635 23.8987 132.998 23.216C133.36 22.5333 133.867 22.0107 134.518 21.648C135.179 21.2747 135.936 21.088 136.79 21.088C137.622 21.088 138.358 21.2693 138.998 21.632C139.638 21.9947 140.128 22.496 140.47 23.136C140.822 23.7653 140.998 24.48 140.998 25.28ZM139.494 24.976C139.494 24.4213 139.371 23.9467 139.126 23.552C138.88 23.1467 138.544 22.8427 138.118 22.64C137.702 22.4267 137.238 22.32 136.726 22.32C135.99 22.32 135.36 22.5547 134.838 23.024C134.326 23.4933 134.032 24.144 133.958 24.976H139.494Z" fill="black" fill-opacity="0.2"/>
</svg>
