<svg width="431" height="305" viewBox="0 0 431 305" fill="none" xmlns="http://www.w3.org/2000/svg">
<path d="M332.196 64.9094L397.477 57.4458C416.451 55.2766 432.594 71.1516 430.744 90.1585L414.318 258.876C412.923 273.213 401.535 284.533 387.191 285.845L187.259 304.124C172.839 305.442 159.534 296.271 155.636 282.325L146.475 249.553C140.852 229.438 116.908 221.082 99.9901 233.329L48.9945 270.248C29.2796 284.52 1.66948 270.612 1.40395 246.275L0.109267 127.613C0.00645089 118.19 4.3372 109.267 11.8034 103.517L137.885 6.42433C152.825 -5.08107 174.55 -0.112575 183.005 16.7432L204.849 60.2963C210.526 71.6138 222.697 78.1491 235.267 76.6293L332.196 64.9094Z" fill="#F4F4F4"/>
</svg>
