<svg width="14" height="14" viewBox="0 0 14 14" fill="none" xmlns="http://www.w3.org/2000/svg">
<path d="M14 6.99995C14 3.13396 10.866 -4.57764e-05 7 -4.57764e-05C3.134 -4.57764e-05 0 3.13396 0 6.99995C0 10.4939 2.5598 13.3898 5.90625 13.9149V9.02339H4.12891V6.99995H5.90625V5.45777C5.90625 3.70339 6.9513 2.73433 8.55025 2.73433C9.31611 2.73433 10.1172 2.87105 10.1172 2.87105V4.5937H9.2345C8.36493 4.5937 8.09375 5.13329 8.09375 5.68687V6.99995H10.0352L9.7248 9.02339H8.09375V13.9149C11.4402 13.3898 14 10.4939 14 6.99995Z" fill="#1877F2"/>
</svg>
