<svg width="14" height="14" viewBox="0 0 14 14" fill="none" xmlns="http://www.w3.org/2000/svg">
<g clip-path="url(#clip0_525_305)">
<path d="M11.5624 3.2595C11.5624 2.7948 11.1857 2.41956 10.7228 2.41956C10.2598 2.41956 9.88281 2.7948 9.88281 3.2595C9.88281 3.72249 10.2598 4.09771 10.7228 4.09771C11.1857 4.09771 11.5624 3.72249 11.5624 3.2595Z" fill="url(#paint0_linear_525_305)"/>
<path d="M12.6813 9.81585C12.6502 10.4976 12.5362 10.868 12.4415 11.1139C12.3144 11.4401 12.1627 11.6733 11.9167 11.918C11.6735 12.1626 11.4402 12.3139 11.1141 12.4397C10.8681 12.5357 10.4963 12.6501 9.8146 12.6826C9.07764 12.7151 8.85927 12.722 6.9904 12.722C5.12327 12.722 4.90315 12.7151 4.16618 12.6826C3.48451 12.6501 3.11445 12.5357 2.86843 12.4397C2.54055 12.3139 2.30906 12.1626 2.06444 11.918C1.81808 11.6733 1.66641 11.4401 1.54099 11.1139C1.4463 10.868 1.33057 10.4976 1.30119 9.81585C1.26527 9.07889 1.25869 8.85706 1.25869 6.992C1.25869 5.12313 1.26527 4.90303 1.30119 4.16604C1.33057 3.48437 1.4463 3.11434 1.54099 2.86624C1.66641 2.54043 1.81808 2.30858 2.06444 2.06396C2.30906 1.8197 2.54055 1.668 2.86843 1.54087C3.11445 1.44447 3.48451 1.33183 4.16618 1.29936C4.90315 1.26686 5.12327 1.25857 6.9904 1.25857C8.85927 1.25857 9.07764 1.26686 9.8146 1.29936C10.4963 1.33183 10.8681 1.44447 11.1141 1.54087C11.4402 1.668 11.6735 1.8197 11.9167 2.06396C12.1627 2.30858 12.3144 2.54043 12.4415 2.86624C12.5362 3.11434 12.6502 3.48437 12.6813 4.16604C12.7155 4.90303 12.7238 5.12313 12.7238 6.992C12.7238 8.85706 12.7155 9.07889 12.6813 9.81585ZM13.94 4.1087C13.9058 3.36377 13.7883 2.85484 13.6138 2.41156C13.4363 1.95167 13.1982 1.56194 12.8085 1.1722C12.4205 0.784199 12.0307 0.546134 11.5708 0.366475C11.1258 0.193711 10.6186 0.0748456 9.87333 0.0423764C9.12805 0.0064344 8.89003 -0.00012207 6.9904 -0.00012207C5.09249 -0.00012207 4.85273 0.0064344 4.10745 0.0423764C3.36391 0.0748456 2.85702 0.193711 2.40995 0.366475C1.9518 0.546134 1.56206 0.784199 1.17406 1.1722C0.78432 1.56194 0.546254 1.95167 0.366934 2.41156C0.194169 2.85484 0.0767035 3.36377 0.0407618 4.1087C0.00829227 4.85398 0 5.09237 0 6.992C0 8.88991 0.00829227 9.12794 0.0407618 9.87322C0.0767035 10.6168 0.194169 11.1254 0.366934 11.5707C0.546254 12.0289 0.78432 12.4204 1.17406 12.8083C1.56206 13.1964 1.9518 13.4361 2.40995 13.6155C2.85702 13.7882 3.36391 13.9057 4.10745 13.9399C4.85273 13.9741 5.09249 13.9824 6.9904 13.9824C8.89003 13.9824 9.12805 13.9741 9.87333 13.9399C10.6186 13.9057 11.1258 13.7882 11.5708 13.6155C12.0307 13.4361 12.4205 13.1964 12.8085 12.8083C13.1982 12.4204 13.4363 12.0289 13.6138 11.5707C13.7883 11.1254 13.9058 10.6168 13.94 9.87322C13.9742 9.12794 13.9825 8.88991 13.9825 6.992C13.9825 5.09237 13.9742 4.85398 13.94 4.1087Z" fill="url(#paint1_linear_525_305)"/>
<path d="M6.99019 9.32047C5.70384 9.32047 4.66006 8.27839 4.66006 6.99204C4.66006 5.70362 5.70384 4.6602 6.99019 4.6602C8.27691 4.6602 9.32206 5.70362 9.32206 6.99204C9.32206 8.27839 8.27691 9.32047 6.99019 9.32047ZM6.99019 3.39978C5.0073 3.39978 3.40137 5.00915 3.40137 6.99204C3.40137 8.97322 5.0073 10.5809 6.99019 10.5809C8.97308 10.5809 10.5807 8.97322 10.5807 6.99204C10.5807 5.00915 8.97308 3.39978 6.99019 3.39978Z" fill="url(#paint2_linear_525_305)"/>
</g>
<defs>
<linearGradient id="paint0_linear_525_305" x1="0.12592" y1="13.8379" x2="12.8177" y2="1.14612" gradientUnits="userSpaceOnUse">
<stop stop-color="#FFD521"/>
<stop offset="0.05" stop-color="#FFD521"/>
<stop offset="0.501119" stop-color="#F50000"/>
<stop offset="0.95" stop-color="#B900B4"/>
<stop offset="0.950079" stop-color="#B900B4"/>
<stop offset="1" stop-color="#B900B4"/>
</linearGradient>
<linearGradient id="paint1_linear_525_305" x1="0.12612" y1="13.8552" x2="12.8284" y2="1.15303" gradientUnits="userSpaceOnUse">
<stop stop-color="#FFD521"/>
<stop offset="0.05" stop-color="#FFD521"/>
<stop offset="0.501119" stop-color="#F50000"/>
<stop offset="0.95" stop-color="#B900B4"/>
<stop offset="0.950079" stop-color="#B900B4"/>
<stop offset="1" stop-color="#B900B4"/>
</linearGradient>
<linearGradient id="paint2_linear_525_305" x1="0.129212" y1="13.8556" x2="12.8284" y2="1.15647" gradientUnits="userSpaceOnUse">
<stop stop-color="#FFD521"/>
<stop offset="0.05" stop-color="#FFD521"/>
<stop offset="0.501119" stop-color="#F50000"/>
<stop offset="0.95" stop-color="#B900B4"/>
<stop offset="0.950079" stop-color="#B900B4"/>
<stop offset="1" stop-color="#B900B4"/>
</linearGradient>
<clipPath id="clip0_525_305">
<rect width="14" height="14" fill="white"/>
</clipPath>
</defs>
</svg>
