<svg width="14" height="14" viewBox="0 0 14 14" fill="none" xmlns="http://www.w3.org/2000/svg">
<path d="M11.9287 11.8803H9.8543V8.66373C9.8543 7.89671 9.84048 6.90933 8.77542 6.90933C7.69502 6.90933 7.52972 7.74502 7.52972 8.60789V11.8801H5.45535V5.26554H7.44674V6.16948H7.47462C7.67391 5.83209 7.96189 5.55454 8.30789 5.36638C8.65389 5.17822 9.04496 5.08651 9.43943 5.10101C11.5419 5.10101 11.9295 6.4703 11.9295 8.25166L11.9287 11.8803ZM3.11478 4.36138C2.8767 4.36142 2.64394 4.29156 2.44596 4.16062C2.24797 4.02969 2.09366 3.84356 2.00251 3.62578C1.91136 3.408 1.88747 3.16835 1.93388 2.93713C1.98028 2.70592 2.0949 2.49352 2.26322 2.32679C2.43154 2.16007 2.64601 2.04651 2.87951 2.00048C3.11302 1.95445 3.35505 1.97801 3.57503 2.06818C3.79501 2.15836 3.98304 2.31109 4.11535 2.50708C4.24766 2.70307 4.3183 2.9335 4.31835 3.16924C4.31838 3.32577 4.28726 3.48077 4.22679 3.62539C4.16632 3.77001 4.07769 3.90142 3.96592 4.01212C3.85416 4.12282 3.72147 4.21064 3.57543 4.27057C3.42939 4.33049 3.27286 4.36135 3.11478 4.36138ZM4.15196 11.8803H2.07544V5.26554H4.15196V11.8803ZM12.9628 0.0701583H1.03308C0.762306 0.0671327 0.501385 0.170672 0.307673 0.358023C0.113961 0.545374 0.00330462 0.801209 0 1.06931V12.9306C0.00319152 13.1988 0.113783 13.4548 0.307489 13.6424C0.501194 13.8299 0.762172 13.9336 1.03308 13.9308H12.9628C13.2343 13.9342 13.496 13.8307 13.6904 13.6432C13.8849 13.4556 13.9962 13.1993 14 12.9306V1.06846C13.9961 0.799822 13.8847 0.543695 13.6902 0.356349C13.4958 0.169002 13.2341 0.0657592 12.9628 0.0693021" fill="#0A66C2"/>
</svg>
