<svg width="14" height="14" viewBox="0 0 14 14" fill="none" xmlns="http://www.w3.org/2000/svg">
<path d="M7 14C10.866 14 14 10.866 14 7C14 3.13401 10.866 0 7 0C3.13401 0 0 3.13401 0 7C0 10.866 3.13401 14 7 14Z" fill="black"/>
<path d="M6.02679 5.8199V5.43784C5.89581 5.41993 5.76272 5.40869 5.62682 5.40869C3.99042 5.40869 2.65918 6.73993 2.65918 8.37633C2.65918 9.3803 3.16099 10.2687 3.92616 10.806C3.43208 10.2758 3.12903 9.56536 3.12903 8.78543C3.12903 7.17256 4.4227 5.85712 6.02679 5.81955V5.8199Z" fill="#25F4EE"/>
<path d="M6.09647 10.1413C6.82653 10.1413 7.4221 9.56047 7.44914 8.83708L7.45159 2.37541H8.63219C8.60761 2.24267 8.59426 2.10607 8.59426 1.96631H6.98174L6.97929 8.42798C6.95225 9.15172 6.35668 9.73219 5.62662 9.73219C5.39977 9.73219 5.18592 9.6753 4.99805 9.57662C5.24456 9.91795 5.64453 10.1416 6.09682 10.1416L6.09647 10.1413Z" fill="#25F4EE"/>
<path d="M10.8374 4.5684V4.20917C10.3872 4.20917 9.96758 4.07538 9.61572 3.84607C9.92896 4.20566 10.3546 4.46516 10.8374 4.5684Z" fill="#25F4EE"/>
<path d="M9.61543 3.84565C9.27235 3.45165 9.06376 2.93721 9.06376 2.375H8.63184C8.74561 2.98918 9.11011 3.51627 9.61543 3.84565Z" fill="#FE2C55"/>
<path d="M5.62696 7.02117C4.87969 7.02117 4.27148 7.62903 4.27148 8.37664C4.27148 8.89706 4.56681 9.34935 4.99803 9.5762C4.8372 9.35357 4.74134 9.08072 4.74134 8.78574C4.74134 8.03848 5.34954 7.43027 6.09681 7.43027C6.23622 7.43027 6.37001 7.45345 6.49678 7.49278V5.8469C6.3658 5.82899 6.23271 5.81775 6.09681 5.81775C6.07328 5.81775 6.0501 5.81915 6.02658 5.8195V7.08368C5.90016 7.044 5.76602 7.02117 5.62661 7.02117H5.62696Z" fill="#FE2C55"/>
<path d="M10.8373 4.56836V5.82164C10.0012 5.82164 9.22652 5.55406 8.59409 5.10036V8.37703C8.59409 10.0134 7.26284 11.3447 5.62644 11.3447C4.99401 11.3447 4.40757 11.1452 3.92578 10.8067C4.46797 11.3886 5.24017 11.7538 6.09665 11.7538C7.73305 11.7538 9.06429 10.4225 9.06429 8.78613V5.50946C9.69672 5.96351 10.4714 6.23075 11.3075 6.23075V4.61822C11.1463 4.61822 10.989 4.60067 10.8376 4.56836H10.8373Z" fill="#FE2C55"/>
<path d="M8.59434 8.37666V5.09999C9.22678 5.55404 10.0014 5.82127 10.8375 5.82127V4.56799C10.3547 4.46475 9.9291 4.20524 9.61586 3.84565C9.11055 3.51627 8.74604 2.98918 8.63227 2.375H7.45167L7.44921 8.83667C7.42217 9.56041 6.82661 10.1409 6.09655 10.1409C5.64426 10.1409 5.24429 9.91754 4.99777 9.57586C4.5662 9.34866 4.27123 8.89672 4.27123 8.3763C4.27123 7.62904 4.87943 7.02083 5.6267 7.02083C5.76611 7.02083 5.8999 7.04401 6.02667 7.08334V5.81917C4.42258 5.85674 3.12891 7.17218 3.12891 8.78505C3.12891 9.56533 3.43196 10.2754 3.92604 10.8056C4.40818 11.1441 4.99426 11.3436 5.6267 11.3436C7.2631 11.3436 8.59434 10.0124 8.59434 8.37595V8.37666Z" fill="white"/>
</svg>
